<mxfile host="app.diagrams.net" modified="2023-05-23T22:09:21.742Z" agent="Mozilla/5.0 (Windows NT 10.0; Win64; x64) AppleWebKit/537.36 (KHTML, like Gecko) Chrome/113.0.0.0 Safari/537.36" etag="K_32KfWvEzNTH2EzXvG7" version="21.3.3" type="device">
  <diagram name="Página-1" id="cohjf_F1fFxE-DuzBMKX">
    <mxGraphModel dx="1434" dy="796" grid="1" gridSize="10" guides="1" tooltips="1" connect="1" arrows="1" fold="1" page="1" pageScale="1" pageWidth="827" pageHeight="1169" math="0" shadow="0">
      <root>
        <mxCell id="0" />
        <mxCell id="1" parent="0" />
        <mxCell id="CMQCgZ19r1uiqpWnwGcW-1" style="edgeStyle=orthogonalEdgeStyle;rounded=0;orthogonalLoop=1;jettySize=auto;html=1;" parent="1" edge="1">
          <mxGeometry relative="1" as="geometry">
            <mxPoint x="340" y="430" as="targetPoint" />
            <mxPoint x="235.5" y="430" as="sourcePoint" />
          </mxGeometry>
        </mxCell>
        <mxCell id="F1v8tkWZc9O94aru3DAG-21" value="&lt;b&gt;HELIX &lt;/b&gt;&lt;br&gt;(FIWARE Broker)" style="rounded=1;whiteSpace=wrap;html=1;" parent="1" vertex="1">
          <mxGeometry x="115.5" y="400" width="120" height="60" as="geometry" />
        </mxCell>
        <mxCell id="CMQCgZ19r1uiqpWnwGcW-2" style="edgeStyle=orthogonalEdgeStyle;rounded=0;orthogonalLoop=1;jettySize=auto;html=1;" parent="1" source="F1v8tkWZc9O94aru3DAG-23" edge="1">
          <mxGeometry relative="1" as="geometry">
            <mxPoint x="540" y="428" as="targetPoint" />
          </mxGeometry>
        </mxCell>
        <mxCell id="F1v8tkWZc9O94aru3DAG-23" value="&lt;b&gt;API C#&lt;br&gt;(Método POST)&lt;br&gt;&lt;/b&gt;" style="shape=image;html=1;verticalAlign=top;verticalLabelPosition=bottom;labelBackgroundColor=#ffffff;imageAspect=0;aspect=fixed;image=https://cdn1.iconfinder.com/data/icons/competitive-strategy-and-corporate-training/512/597_Command_computer_function_process_progress_game_gaming_genres_programing-128.png" parent="1" vertex="1">
          <mxGeometry x="340" y="380.01" width="96" height="96" as="geometry" />
        </mxCell>
        <mxCell id="F1v8tkWZc9O94aru3DAG-24" value="&lt;b&gt;WEB Application&lt;/b&gt;&lt;br&gt;(ASP.NET MVC)" style="shape=image;html=1;verticalAlign=top;verticalLabelPosition=bottom;labelBackgroundColor=#ffffff;imageAspect=0;aspect=fixed;image=https://cdn3.iconfinder.com/data/icons/forall/1062/window-128.png" parent="1" vertex="1">
          <mxGeometry x="540" y="373.87" width="112.25" height="112.25" as="geometry" />
        </mxCell>
        <mxCell id="F1v8tkWZc9O94aru3DAG-25" value="&lt;b&gt;SQL Server&lt;/b&gt;" style="image;aspect=fixed;html=1;points=[];align=center;fontSize=12;image=img/lib/azure2/databases/SQL_Database.svg;" parent="1" vertex="1">
          <mxGeometry x="730" y="378.01" width="75" height="100" as="geometry" />
        </mxCell>
        <mxCell id="F1v8tkWZc9O94aru3DAG-35" value="" style="endArrow=classic;startArrow=classic;html=1;rounded=0;" parent="1" edge="1">
          <mxGeometry width="50" height="50" relative="1" as="geometry">
            <mxPoint x="596.62" y="613" as="sourcePoint" />
            <mxPoint x="595.62" y="523" as="targetPoint" />
            <Array as="points">
              <mxPoint x="596.62" y="566" />
            </Array>
          </mxGeometry>
        </mxCell>
        <mxCell id="F1v8tkWZc9O94aru3DAG-36" value="" style="shape=image;html=1;verticalAlign=top;verticalLabelPosition=bottom;labelBackgroundColor=#ffffff;imageAspect=0;aspect=fixed;image=https://cdn4.iconfinder.com/data/icons/app-custom-ui-1/48/Basket-2-128.png" parent="1" vertex="1">
          <mxGeometry x="112" y="887" width="127" height="127" as="geometry" />
        </mxCell>
        <mxCell id="F1v8tkWZc9O94aru3DAG-38" value="" style="shape=image;html=1;verticalAlign=top;verticalLabelPosition=bottom;labelBackgroundColor=#ffffff;imageAspect=0;aspect=fixed;image=https://cdn1.iconfinder.com/data/icons/ionicons-outline-vol-2/512/qr-code-outline-128.png" parent="1" vertex="1">
          <mxGeometry x="146" y="857" width="47" height="47" as="geometry" />
        </mxCell>
        <mxCell id="F1v8tkWZc9O94aru3DAG-39" value="" style="dashed=0;outlineConnect=0;html=1;align=center;labelPosition=center;verticalLabelPosition=bottom;verticalAlign=top;shape=mxgraph.webicons.json;gradientColor=#DFDEDE" parent="1" vertex="1">
          <mxGeometry x="115" y="523" width="115.5" height="110" as="geometry" />
        </mxCell>
        <mxCell id="CMQCgZ19r1uiqpWnwGcW-3" style="edgeStyle=orthogonalEdgeStyle;rounded=0;orthogonalLoop=1;jettySize=auto;html=1;" parent="1" source="F1v8tkWZc9O94aru3DAG-41" edge="1">
          <mxGeometry relative="1" as="geometry">
            <mxPoint x="175.5" y="640" as="targetPoint" />
          </mxGeometry>
        </mxCell>
        <mxCell id="F1v8tkWZc9O94aru3DAG-41" value="&lt;b&gt;ESP32-CAM&lt;/b&gt;" style="shape=image;html=1;verticalAlign=top;verticalLabelPosition=bottom;labelBackgroundColor=#ffffff;imageAspect=0;aspect=fixed;image=https://cdn2.iconfinder.com/data/icons/mobile-and-internet-business/285/qr_code-128.png" parent="1" vertex="1">
          <mxGeometry x="121.5" y="677" width="108" height="108" as="geometry" />
        </mxCell>
        <mxCell id="F1v8tkWZc9O94aru3DAG-47" value="" style="endArrow=classic;html=1;rounded=0;entryX=0.446;entryY=1.1;entryDx=0;entryDy=0;entryPerimeter=0;" parent="1" edge="1">
          <mxGeometry width="50" height="50" relative="1" as="geometry">
            <mxPoint x="177" y="538.75" as="sourcePoint" />
            <mxPoint x="177.01999999999998" y="469" as="targetPoint" />
          </mxGeometry>
        </mxCell>
        <mxCell id="F1v8tkWZc9O94aru3DAG-48" value="" style="endArrow=classic;html=1;rounded=0;" parent="1" edge="1">
          <mxGeometry width="50" height="50" relative="1" as="geometry">
            <mxPoint x="175" y="858.75" as="sourcePoint" />
            <mxPoint x="176" y="807" as="targetPoint" />
          </mxGeometry>
        </mxCell>
        <mxCell id="BRCcPJwgwSna5jbiU_DD-1" value="" style="sketch=0;outlineConnect=0;fontColor=#232F3E;gradientColor=none;fillColor=#232F3D;strokeColor=none;dashed=0;verticalLabelPosition=bottom;verticalAlign=top;align=center;html=1;fontSize=12;fontStyle=0;aspect=fixed;pointerEvents=1;shape=mxgraph.aws4.user;" parent="1" vertex="1">
          <mxGeometry x="557.12" y="620" width="78" height="78" as="geometry" />
        </mxCell>
        <mxCell id="3FYi0QQhMxSfJKBoUvwt-2" value="" style="endArrow=classic;startArrow=classic;html=1;rounded=0;" edge="1" parent="1">
          <mxGeometry width="50" height="50" relative="1" as="geometry">
            <mxPoint x="652.25" y="427.51" as="sourcePoint" />
            <mxPoint x="727.61" y="428.01" as="targetPoint" />
          </mxGeometry>
        </mxCell>
      </root>
    </mxGraphModel>
  </diagram>
</mxfile>
